<?xml version="1.0" encoding="iso-8859-1"?>
<!-- Generator: Adobe Illustrator 19.0.0, SVG Export Plug-In . SVG Version: 6.00 Build 0)  -->
<svg version="1.1" id="Capa_1" xmlns="http://www.w3.org/2000/svg" xmlns:xlink="http://www.w3.org/1999/xlink" x="0px" y="0px"
	 viewBox="0 0 511.999 511.999" style="enable-background:new 0 0 511.999 511.999;" xml:space="preserve">
<path style="fill:#EAE4D6;" d="M430.576,504.5H81.423c-19.442,0-35.203-15.761-35.203-35.203V42.704
	C46.22,23.261,61.981,7.5,81.423,7.5h349.152c19.442,0,35.203,15.761,35.203,35.203v426.592
	C465.779,488.739,450.018,504.5,430.576,504.5z"/>
<path style="fill:#DDD3C0;" d="M73.555,469.296V42.704c0-19.442,15.761-35.203,35.203-35.203H81.423
	C61.981,7.5,46.22,23.261,46.22,42.704v426.592c0,19.442,15.761,35.203,35.203,35.203h27.335
	C89.316,504.5,73.555,488.739,73.555,469.296z"/>
<path style="fill:#70B5E8;" d="M430.527,34.666H81.473c-4.466,0-8.087,3.621-8.087,8.087v308.346c0,4.466,3.621,8.087,8.087,8.087
	h349.053c4.466,0,8.087-3.621,8.087-8.087V42.754C438.614,38.286,434.993,34.666,430.527,34.666z"/>
<path style="fill:#52A5D8;" d="M103.387,351.099V42.754c0-4.466,3.621-8.087,8.087-8.087H81.472c-4.466,0-8.087,3.621-8.087,8.087
	V351.1c0,4.466,3.621,8.087,8.087,8.087h30.002C107.008,359.187,103.387,355.567,103.387,351.099z"/>
<path style="fill:#93482B;" d="M330.588,147.928c-4.342-85.679-126.128-99.002-148.947-16.321
	c-1.257,4.572-2.078,8.841-2.492,14.147c-0.266,3.359-0.296,20.523-0.281,30.834H330.7
	C330.704,149.844,330.701,150.183,330.588,147.928z"/>
<path style="fill:#873921;" d="M232.418,131.607c7.541-27.324,25.894-44.155,47.242-51.362
	c-37.71-12.422-84.705,3.124-98.019,51.362c-1.257,4.572-2.078,8.841-2.492,14.147c-0.266,3.359-0.296,20.523-0.281,30.834h50.777
	C229.602,147.231,229.414,142.526,232.418,131.607z"/>
<path style="fill:#EFEFEF;" d="M359.941,359.186l-9.394-57.724c-1.526-7.72-2.397-20.559-17.185-26.776
	c-1.38-0.579-4.523-1.446-4.46-1.427c-64.855-22.91-5.168-1.826-33.853-11.925l-14.367-8.896V235.34
	c-15.415,7.76-34.335,8.357-50.087,1.079l0.01,16.02l-14.773,9.051l-7.612,2.617h-0.017l0.003,0.005
	c-0.111,0.039-31.232,11.057-29.226,10.156c-8.185,3.056-15.104,9.783-16.072,19.2c-0.61,5.939-11.48,65.718-11.48,65.718
	L359.941,359.186L359.941,359.186z"/>
<path style="fill:#DDDDDD;" d="M200.671,266.777c-22.083,7.796-21.809,7.543-21.691,7.49c-8.185,3.056-15.104,9.783-16.072,19.2
	c-0.61,5.939-11.48,65.718-11.48,65.718h28.27c0,0,10.87-70.78,11.48-76.719C191.858,275.842,195.322,270.624,200.671,266.777z"/>
<path style="fill:#EAB883;" d="M254.782,275.988l29.172-21.522l0,0l-3.272-2.026V235.34c-15.415,7.76-34.335,8.357-50.087,1.079
	l0.01,16.02l-3.307,2.026L254.782,275.988z"/>
<path style="fill:#E0A773;" d="M230.594,236.419l0.01,16.02l-3.307,2.026l27.485,21.522v-34.471
	C246.481,241.58,238.171,239.92,230.594,236.419z"/>
<g>
	<path style="fill:#DDDDDD;" d="M230.604,252.439l24.177,23.548l-21.58,15.019c-3.149,2.191-7.52,0.724-8.71-2.924l-8.661-26.592
		L230.604,252.439z"/>
	<path style="fill:#DDDDDD;" d="M280.682,252.439l-25.9,23.548l21.58,15.019c3.149,2.191,7.52,0.724,8.709-2.924l9.978-26.747
		L280.682,252.439z"/>
</g>
<path style="fill:#EF3C3C;" d="M264.508,309.265h-9.726h-9.726l-13.347,49.961c36.303,0,9.853,0,46.144,0L264.508,309.265z"/>
<polygon style="fill:#F94A46;" points="254.782,275.988 236.664,288.596 245.056,309.265 254.782,309.265 264.508,309.265 
	272.9,288.596 "/>
<polygon style="fill:#DD2F2F;" points="264.508,309.265 254.782,309.265 245.056,309.265 231.71,359.226 251.188,359.226 
	264.521,309.314 "/>
<polygon style="fill:#EF3C3C;" points="251.851,278.028 236.664,288.596 245.056,309.265 254.782,309.265 264.508,309.265 
	264.521,309.232 "/>
<g>
	<path style="fill:#EAB883;" d="M201.666,167.756c-13.178-4.696-28.484,4.037-28.484,16.779c0,12.738,15.304,21.475,28.484,16.779
		V167.756z"/>
	<path style="fill:#EAB883;" d="M307.924,167.756c13.178-4.696,28.484,4.037,28.484,16.779c0,12.738-15.304,21.475-28.484,16.779
		V167.756z"/>
</g>
<g>
	<path style="fill:#E0A773;" d="M175.385,176.534c-1.394,2.383-2.203,5.085-2.203,8c0,12.738,15.304,21.475,28.484,16.779v-16.001
		C191.502,188.934,180.082,184.563,175.385,176.534z"/>
	<path style="fill:#E0A773;" d="M307.924,185.312v16.001c17.071,6.083,34.955-9.953,26.281-24.779
		C329.507,184.563,318.088,188.934,307.924,185.312z"/>
</g>
<path style="fill:#F7CF9C;" d="M307.433,147.903c1.406,0.136,2.487,1.302,2.487,2.714c0,46.414,0.03,39.627-0.078,41.786
	c-3.154,62.233-91.612,71.909-108.187,11.855c-0.913-3.321-1.51-6.421-1.81-10.276c-0.309-3.898-0.18-25.058-0.18-24.99
	c0-10.809,9.593-19.055,20.29-17.511c16.849,2.432,41.442,1.487,62.903-16.856c2.205-1.885,5.551-1.276,6.959,1.26
	C292.477,140.675,297.765,146.97,307.433,147.903z"/>
<path style="fill:#EAB883;" d="M229.722,192.404c-0.107-2.13-0.079,4.449-0.078-40.025c-3.433-0.14-6.685-0.462-9.689-0.896
	c-10.698-1.544-20.291,6.702-20.291,17.511c0-0.068-0.128,21.091,0.18,24.99c0.3,3.854,0.897,6.954,1.81,10.276
	c9.313,33.739,41.311,45.467,68.127,38.233C248.867,236.85,231.105,219.673,229.722,192.404z"/>
<path d="M142.439,399.483l-12.147,44.831l-12.234-44.831c-1.645-5.248-14.421-1.544-13.022,4.019
	c17.808,55.672,15.012,54.688,19.619,56.716c4.876,2.147,13.106,1.279,14.55-3.408c16.423-54.073,16.43-53.499,16.43-54.269
	C155.635,397.841,144.052,394.317,142.439,399.483z"/>
<path d="M172.981,460.262c5.193,1.46,11.647,1.463,16.91,0c5.273-1.464,9.159-4.803,11.361-9.963
	c2.658-6.23,1.286-12.378,1.66-32.728c0-13.034-7.191-20.623-21.498-20.623c-5.458,0-11.061,1.096-15.206,4.675
	c-8.292,7.162-5.806,17.452-6.204,39.106C160.003,451.668,165.262,458.097,172.981,460.262z M173.636,417.572
	c0-5.464,2.358-8.739,7.777-8.739c4.981,0,7.865,2.774,7.865,8.739v23.158c0,5.434-2.409,8.739-7.865,8.739
	c-5.401,0-7.777-3.25-7.777-8.739V417.572z"/>
<path d="M236.47,456.636v-47.453c11.049-0.468,13.388,1.194,15.119-1.835c2.036-3.569,1.191-10.399-3.059-10.399
	c-38.321,0.611-39.179-1.515-40.898,1.922c-1.42,2.838-1.171,6.274,0.088,8.478c1.734,3.039,4.09,1.367,15.118,1.835v47.453
	C222.837,462.214,236.47,462.231,236.47,456.636z"/>
<path d="M259.89,459.782c3.197,1.827,3.555,0.723,35.218,1.049c4.215,0,5.108-6.592,3.059-10.094
	c-1.821-3.107-3.184-1.251-26.48-1.792V434.09c12.222-0.445,14.67,1.101,16.255-1.704c2-3.549,0.716-8.783-3.146-8.783h-13.109
	v-14.77c22.92-0.53,24.652,1.329,26.48-1.791c2.043-3.486,1.151-10.094-3.059-10.094c-31.656,0.326-32.018-0.778-35.218,1.048
	c-3.289,1.879-1.22,0.365-1.835,58.64C258.055,458.035,258.666,459.083,259.89,459.782z"/>
<path d="M374.893,423.254c0.99,0,1.879-0.466,2.665-1.398c0.787-0.932,1.18-2.154,1.18-3.67c0-1.398-0.379-2.578-1.136-3.539
	c-0.758-0.962-1.632-1.442-2.621-1.442h-6.117l1.923-9.7c-0.06-1.864-0.729-3.16-2.01-3.889c-1.282-0.728-2.681-1.093-4.195-1.093
	c-1.341,0-2.577,0.249-3.714,0.743c-1.136,0.495-1.791,1.18-1.966,2.054l-2.271,11.885h-9.002l1.835-9.7
	c0-1.864-0.642-3.16-1.923-3.889c-1.281-0.728-2.68-1.093-4.194-1.093c-1.341,0-2.577,0.249-3.714,0.743
	c-1.136,0.495-1.791,1.18-1.966,2.054l-2.272,11.885h-8.126c-1.166,0-2.084,0.496-2.753,1.486c-0.671,0.991-1.005,2.214-1.005,3.67
	c0,1.516,0.319,2.709,0.961,3.583c0.641,0.873,1.543,1.311,2.709,1.311h6.204l-1.835,9.439h-8.039c-1.107,0-2.01,0.495-2.709,1.485
	c-0.699,0.991-1.049,2.215-1.049,3.67c0,1.516,0.335,2.709,1.005,3.583c0.669,0.874,1.558,1.311,2.665,1.311h6.117l-1.922,10.662
	c0,0.816,0.203,1.544,0.611,2.185c0.407,0.642,0.946,1.166,1.616,1.573c0.669,0.408,1.398,0.714,2.185,0.917
	c0.787,0.205,1.529,0.307,2.229,0.307c1.049,0,2.141-0.291,3.277-0.874c1.136-0.582,1.791-1.281,1.966-2.098l2.447-12.672h8.826
	l-2.01,10.662c0,0.816,0.219,1.544,0.655,2.185c0.438,0.642,0.976,1.166,1.617,1.573c3.725,2.377,9.143,0.855,9.7-1.748
	l2.447-12.672h7.952c0.989,0,1.892-0.466,2.708-1.398c0.815-0.932,1.224-2.155,1.224-3.671c0-1.397-0.393-2.577-1.18-3.539
	c-0.786-0.961-1.675-1.441-2.665-1.441h-6.117l1.923-9.439h7.865V423.254z M352.784,432.691h-8.914l1.835-9.439h8.914
	L352.784,432.691z"/>
<path d="M401.068,397.91c-1.97-1.137-4.88-1.618-6.598-0.524c-11.048,6.928-14.07,7.275-14.07,11.623
	c0,2.497,1.558,5.418,4.282,5.418c1.604,0,2.353-0.915,4.719-2.271v44.481c0,5.546,13.633,5.608,13.633,0
	C402.37,397.961,404.579,399.94,401.068,397.91z"/>
<path d="M430.576,0H81.423C57.876,0,38.72,19.156,38.72,42.704v426.592c0,23.547,19.156,42.704,42.704,42.704h36.087
	c4.143,0,7.5-3.357,7.5-7.5s-3.357-7.5-7.5-7.5H81.423c-15.275,0-27.703-12.428-27.703-27.703V42.704
	c0-15.275,12.428-27.703,27.703-27.703h349.152c15.275,0,27.703,12.428,27.703,27.703v426.592c0,15.275-12.428,27.703-27.703,27.703
	H152.513c-4.143,0-7.5,3.357-7.5,7.5s3.357,7.5,7.5,7.5h278.063c23.547,0,42.704-19.156,42.704-42.704V42.704
	C473.279,19.156,454.123,0,430.576,0z"/>
<path d="M438.614,295.148c4.143,0,7.5-3.357,7.5-7.5V42.754c0-8.596-6.993-15.588-15.589-15.588H152.513c-4.143,0-7.5,3.357-7.5,7.5
	s3.357,7.5,7.5,7.5h278.013c0.324,0,0.588,0.264,0.588,0.587v244.894C431.114,291.791,434.471,295.148,438.614,295.148z"/>
<path d="M330.719,265.947c0.002,0.001,0.004,0.001,0.006,0.002C330.723,265.948,330.721,265.947,330.719,265.947z"/>
<path d="M331.165,266.104c0.019,0.007,0.036,0.013,0.052,0.018C331.2,266.117,331.183,266.11,331.165,266.104z"/>
<path d="M331.216,266.122c0.029,0.01,0.053,0.019,0.069,0.024C331.271,266.141,331.247,266.133,331.216,266.122z"/>
<path d="M330.657,265.925c0.01,0.004,0.022,0.008,0.032,0.011C330.676,265.931,330.665,265.928,330.657,265.925z"/>
<path d="M330.689,265.936c0.005,0.002,0.011,0.004,0.017,0.006C330.701,265.94,330.695,265.938,330.689,265.936z"/>
<path d="M330.818,265.981c-0.034-0.012-0.066-0.023-0.092-0.033c0.003,0.001,0.007,0.002,0.009,0.003
	C330.764,265.963,330.79,265.972,330.818,265.981z"/>
<polygon points="330.719,265.947 330.706,265.942 330.716,265.945 "/>
<path d="M80.886,42.754c0-1.142-0.28-0.321,36.624-0.587c4.143,0,7.5-3.357,7.5-7.5s-3.357-7.5-7.5-7.5H81.473
	c-8.596,0-15.588,6.992-15.588,15.588v308.346c0,8.596,6.992,15.588,15.588,15.588c229.665,0,96.8,0.049,349.052,0
	c8.596,0,15.589-6.992,15.589-15.588v-28.45c0-4.143-3.357-7.5-7.5-7.5s-7.5,3.357-7.5,7.5c-0.261,28.721,0.552,29.037-0.588,29.037
	H366.32c-11.218-68.916-7.228-44.971-8.815-53.846c-1.426-7.987-4.079-22.855-21.242-30.07c-1.398-0.586-4.011-1.376-4.952-1.614
	c-0.085-0.03-0.157-0.055-0.223-0.079c0.027,0.01,0.053,0.019,0.077,0.027c-0.026-0.009-0.057-0.02-0.091-0.032
	c0.002,0.001,0.004,0.002,0.007,0.002c-0.003-0.001-0.006-0.002-0.01-0.003c-0.042-0.015-0.089-0.032-0.144-0.051
	c0.01,0.003,0.019,0.007,0.029,0.01c-0.021-0.007-0.042-0.015-0.06-0.021c-0.024-0.008-0.051-0.018-0.077-0.027
	c0.01,0.004,0.021,0.007,0.032,0.011c-0.046-0.016-0.085-0.03-0.115-0.041c-0.006-0.002-0.012-0.004-0.019-0.007
	c-0.031-0.011-0.052-0.018-0.063-0.022c0.001,0,0.003,0.001,0.005,0.002c-0.004-0.001-0.008-0.003-0.011-0.004
	c-0.004-0.002-0.006-0.002-0.005-0.002c-1.947-0.688-8.951-3.161-30.871-10.903l-0.001,0.002c-3.142-1.008,0.192,0.154-11.587-6.757
	v-5.496c11.646-6.957,21.359-17.877,26.111-32.839c24.991,2.618,40.137-24.842,23.895-42.118c0.003-0.1,0.122-19.288-0.141-20.848
	c-2.735-48.4-39.155-73.937-74.163-77.779c-48.863-5.367-88.527,28.692-92.213,75.98c-0.353,4.438-0.339,21.271-0.293,22.674
	c-16.291,17.374-0.891,44.893,24.164,42.059c5.418,16.315,15.569,27.454,27.556,34.16l0.003,4.187
	c-16.153,9.896-7.537,4.908-17.651,8.892c-34.252,12.136-27.211,9.406-29.095,10.11c-10.757,4.018-19.633,13.037-20.908,25.461
	c-0.391,3.803-6,35.336-10.282,58.986c-65.949-0.271-64.279,0.565-64.279-0.587V42.754H80.886z M241.488,351.685l9.329-34.92h7.931
	l9.328,34.92H241.488z M254.959,265.69l-15.839-15.427c11.016,2.645,22.71,2.364,33.716-0.826L254.959,265.69z M281.542,261.794
	l4.33,2.681l-7.11,19.063c-0.22-0.153-3.697-2.573-3.476-2.419l-8.496-5.912L281.542,261.794z M263.695,291.33l-4.237,10.436h-9.352
	l-4.237-10.436c1.412-0.983,6.946-4.835,8.913-6.203L263.695,291.33z M243.039,275.021l-12.158,8.462l-6.086-18.688l4.754-2.912
	L243.039,275.021z M292.143,290.585l7.361-19.735c4.787,1.661-1.289-0.475,26.9,9.482c17.049,6.108,13.726,5.545,24.718,71.354
	h-29.705v-20.722c0-4.143-3.357-7.5-7.5-7.5c-4.143,0-7.5,3.357-7.5,7.5v20.722h-22.813l-11.2-41.929l4.282-10.545
	c2.431,0.559,4.882,0.394,7.155-0.368C287.786,297.519,290.802,294.515,292.143,290.585z M317.425,195.106v-21.142
	c2.855,0.01,5.651,0.865,7.99,2.515C334.644,182.983,328.611,195.068,317.425,195.106z M179.682,184.534
	c0-6.216,6.21-10.54,12.462-10.57c-0.007,2.913,0.02,21.041,0.02,21.141C185.835,195.084,179.682,190.698,179.682,184.534z
	 M194.22,159.046c-2.641-0.179-5.281-0.008-7.852,0.515c0.029-10.196-0.166-16.255,2.501-25.959
	c20.559-74.486,130.32-62.39,134.227,14.702c0.115,2.328,0.104-2.976,0.103,11.251c-1.897-0.384-3.831-0.579-5.777-0.582
	l-0.001-8.355c0-5.297-3.986-9.674-9.272-10.181c-5.066-0.491-9.028-3.247-11.773-8.191c-3.704-6.674-12.573-8.294-18.391-3.32
	c-19.32,16.515-41.635,17.349-56.957,15.134C209.826,142.441,198.776,148.455,194.22,159.046z M207.323,193.392
	c-0.219-2.766-0.168-21.62-0.157-24.398c0-6.366,5.661-10.962,11.719-10.089c17.71,2.555,43.28,1.662,66.215-16.416
	c4.322,6.248,10.305,10.442,17.321,12.156c0.007,40.863,0.02,35.582-0.068,37.378c-1.539,30.37-27.95,48.853-56.214,44.313
	C223.628,232.586,208.979,214.636,207.323,193.392z M170.369,294.234c0.631-6.162,5.332-10.647,10.953-12.833
	c2.141-0.555,26.209-9.094,29.739-10.339l6.299,19.343c2.223,6.826,9.197,10.262,15.519,8.807l4.282,10.546l-11.201,41.928h-22.789
	v-20.722c0-4.143-3.357-7.5-7.5-7.5c-4.143,0-7.5,3.357-7.5,7.5v20.722h-27.761C163.527,334.434,169.873,299.062,170.369,294.234z"
	/>
<path d="M331.285,266.147c0.006,0.002,0.01,0.003,0.013,0.005C331.295,266.15,331.29,266.148,331.285,266.147z"/>
<path d="M331.073,266.072c-0.038-0.014-0.079-0.028-0.118-0.042c0.035,0.012,0.074,0.026,0.115,0.041
	C331.071,266.071,331.072,266.071,331.073,266.072z"/>
<path d="M331.299,266.151C331.312,266.156,331.312,266.156,331.299,266.151L331.299,266.151z"/>
<g>
</g>
<g>
</g>
<g>
</g>
<g>
</g>
<g>
</g>
<g>
</g>
<g>
</g>
<g>
</g>
<g>
</g>
<g>
</g>
<g>
</g>
<g>
</g>
<g>
</g>
<g>
</g>
<g>
</g>
</svg>
