<?xml version="1.0" encoding="iso-8859-1"?>
<!-- Generator: Adobe Illustrator 19.0.0, SVG Export Plug-In . SVG Version: 6.00 Build 0)  -->
<svg version="1.1" id="Capa_1" xmlns="http://www.w3.org/2000/svg" xmlns:xlink="http://www.w3.org/1999/xlink" x="0px" y="0px"
	 viewBox="0 0 512 512" style="enable-background:new 0 0 512 512;" xml:space="preserve">
<path style="fill:#EAE4D6;" d="M435.845,512H76.154c-20.029,0-36.266-16.237-36.266-36.266V36.266C39.889,16.237,56.125,0,76.154,0
	h359.691c20.029,0,36.266,16.237,36.266,36.266v439.468C472.111,495.763,455.874,512,435.845,512z"/>
<path style="fill:#DDD3C0;" d="M68.049,475.734V36.266C68.049,16.237,84.286,0,104.314,0h-28.16
	C56.125,0,39.889,16.237,39.889,36.266v439.468c0,20.029,16.237,36.266,36.266,36.266h28.16
	C84.286,512,68.049,495.763,68.049,475.734z"/>
<path style="fill:#70B5E8;" d="M435.795,27.985H76.206c-4.601,0-8.332,3.73-8.332,8.332V353.97c0,4.601,3.73,8.332,8.332,8.332
	h359.589c4.601,0,8.332-3.73,8.332-8.332V36.317C444.126,31.716,440.396,27.985,435.795,27.985z"/>
<path style="fill:#52A5D8;" d="M98.781,353.97V36.317c0-4.601,3.73-8.332,8.332-8.332H76.206c-4.601,0-8.332,3.73-8.332,8.332
	V353.97c0,4.601,3.73,8.332,8.332,8.332h30.907C102.512,362.302,98.781,358.571,98.781,353.97z"/>
<path style="fill:#93482B;" d="M332.839,144.666c-4.473-88.265-129.934-101.99-153.443-16.814c-1.295,4.71-2.141,9.108-2.567,14.574
	c-0.274,3.461-0.305,21.142-0.29,31.764h156.415C332.959,146.64,332.956,146.99,332.839,144.666z"/>
<path style="fill:#873921;" d="M231.705,127.852c7.769-28.149,26.675-45.487,48.667-52.912
	c-38.848-12.797-87.262,3.219-100.977,52.912c-1.295,4.71-2.141,9.108-2.567,14.574c-0.274,3.461-0.305,21.142-0.29,31.764h52.31
	C228.805,143.948,228.611,139.1,231.705,127.852z"/>
<g>
	<path style="fill:#7E7F7F;" d="M100.299,406.965c0-4.133,8.123-7.007,11.928-5.177c2.433,1.174,1.001,1.065,14.27,48.21
		c13.218-47.277,11.77-47.047,14.18-48.21c3.235-1.555,8.85,0.201,11.073,2.881c1.799,2.181,2.028-1.385-16.07,58.203
		c-1.912,6.209-16.441,6.26-18.365,0C100.299,407.139,100.299,407.765,100.299,406.965z"/>
	<path style="fill:#7E7F7F;" d="M179.162,467.554c-14.749,0-22.057-7.962-22.057-21.247v-23.858
		c0-11.397,5.496-17.906,13.369-20.121c5.376-1.509,12.02-1.499,17.421,0c5.484,1.526,9.453,4.979,11.704,10.309
		c2.743,6.504,1.323,12.649,1.71,33.67C201.311,459.533,194.104,467.554,179.162,467.554z M185.104,415.608
		c-1.441-1.441-3.421-2.161-5.942-2.161c-5.584,0-8.013,3.374-8.013,9.003v23.858c0,5.654,2.447,9.003,8.013,9.003
		c5.621,0,8.103-3.404,8.103-9.003C186.732,424.654,188.617,419.117,185.104,415.608z"/>
	<path style="fill:#7E7F7F;" d="M251.546,403.183c1.475,2.952,1.194,6.485-0.09,8.733c-1.803,3.155-4.254,1.41-15.575,1.89v48.885
		c0,5.733-14.044,5.779-14.044,0v-48.885h-12.423c-4.267,0-5.186-6.739-3.242-10.623c0.66-1.319,1.741-1.98,3.242-1.98
		C248.929,401.833,249.773,399.647,251.546,403.183z"/>
	<path style="fill:#7E7F7F;" d="M272.161,428.662c12.77,0.445,14.866-1.094,16.655,1.665c1.315,2.03,1.53,4.828,0.091,7.383
		c-1.636,2.895-4.345,1.304-16.745,1.756v15.304c23.7,0.55,25.395-1.368,27.278,1.846c2.118,3.618,1.185,10.398-3.151,10.398h-32.05
		c-2.776,0-6.122-1.232-6.122-4.321c0.628-59.464-1.559-58.438,1.891-60.409c3.297-1.881,3.67-0.744,36.281-1.08
		c4.345,0,5.262,6.796,3.151,10.398c-1.873,3.2-3.315,1.29-27.278,1.845L272.161,428.662L272.161,428.662z"/>
	<path style="fill:#7E7F7F;" d="M350.303,403.949c1.32,0.751,1.981,2.086,1.981,4.006l-1.891,9.993h9.273
		c2.747-11.904,1.35-13.044,4.365-14.359c2.399-1.043,5.549-1.115,8.148,0.36c1.319,0.751,2.009,2.086,2.07,4.006l-1.981,9.993
		h6.302c2.301,0,3.87,2.597,3.87,5.132c0,3.408-2.134,5.222-3.961,5.222h-8.102l-1.981,9.723c5.594,0.336,7.1-0.896,9.048,1.485
		c1.713,2.093,1.562,5.592-0.045,7.428c-2.057,2.348-3.303,1.076-10.983,1.44l-2.521,13.054c-0.758,3.539-8.771,4.416-11.659,0.18
		c-1.55-2.275,0.004-3.75,1.395-13.234h-9.092c-2.978,12.891-1.471,13.639-4.547,15.215c-4.767,2.445-10.218-0.453-10.218-4.232
		l1.98-10.984h-6.302c-5.309,0-4.865-10.353,0.091-10.353h8.282l1.891-9.723c-5.452-0.288-7.616,0.785-9.183-1.35
		c-1.261-1.718-1.414-5.316,0.045-7.472c1.671-2.473,3.657-1.164,11.208-1.531c2.747-11.904,1.351-13.044,4.366-14.359
		C344.549,402.549,347.701,402.471,350.303,403.949z M346.523,438.025h9.183l1.891-9.723h-9.183L346.523,438.025z"/>
	<path style="fill:#7E7F7F;" d="M393.428,416.868c-2.427,1.391-3.21,2.34-4.861,2.34c-4.351,0-6.411-7.587-1.801-10.353
		c12.419-7.251,11.816-7.833,14.495-7.833c2.599,0,6.212,1.449,6.212,4.411v57.258c0,5.732-14.044,5.78-14.044,0v-45.823H393.428z"
		/>
</g>
<path style="fill:#EFEFEF;" d="M363.079,362.301l-9.678-59.466c-1.572-7.954-2.469-21.18-17.703-27.584
	c-1.422-0.597-4.66-1.49-4.595-1.47c-66.812-23.601-5.324-1.882-34.875-12.285l-14.801-9.164v-17.615
	c-15.881,7.995-35.372,8.609-51.599,1.112l0.01,16.503l-15.219,9.324l-7.842,2.696h-0.017l0.003,0.005
	c-0.114,0.04-32.175,11.39-30.107,10.462c-8.431,3.149-15.56,10.077-16.557,19.78c-0.629,6.118-11.826,67.702-11.826,67.702H363.079
	z"/>
<path style="fill:#DDDDDD;" d="M199.001,267.102c-22.75,8.032-22.468,7.771-22.346,7.716c-8.431,3.149-15.56,10.077-16.557,19.78
	c-0.629,6.118-11.827,67.702-11.827,67.702h29.123c0,0,11.198-72.916,11.827-79.035C189.923,276.44,193.49,271.066,199.001,267.102z
	"/>
<path style="fill:#EAB883;" d="M254.745,276.591l30.052-22.172l0,0l-3.371-2.087v-17.615c-15.881,7.995-35.372,8.609-51.599,1.112
	l0.01,16.503l-3.407,2.087L254.745,276.591z"/>
<path style="fill:#E0A773;" d="M229.827,235.828l0.01,16.503l-3.407,2.087l28.314,22.172v-35.512
	C246.195,241.145,237.633,239.434,229.827,235.828z"/>
<g>
	<path style="fill:#DDDDDD;" d="M201.576,333.226c0-4.268-3.459-7.727-7.727-7.727s-7.727,3.459-7.727,7.727V362.3h15.454
		L201.576,333.226L201.576,333.226z"/>
	<path style="fill:#DDDDDD;" d="M323.391,333.226c0-4.268-3.459-7.727-7.727-7.727c-4.267,0-7.727,3.459-7.727,7.727V362.3h15.454
		L323.391,333.226L323.391,333.226z"/>
	<path style="fill:#DDDDDD;" d="M229.839,252.332l24.907,24.259l-22.232,15.472c-3.244,2.258-7.748,0.745-8.972-3.013l-8.922-27.395
		L229.839,252.332z"/>
	<path style="fill:#DDDDDD;" d="M281.427,252.332l-26.682,24.259l22.232,15.472c3.244,2.258,7.748,0.745,8.972-3.013l10.279-27.554
		L281.427,252.332z"/>
</g>
<path style="fill:#EF3C3C;" d="M264.765,310.872h-10.019h-10.019l-13.749,51.469c37.399,0,10.15,0,47.536,0L264.765,310.872z"/>
<polygon style="fill:#F94A46;" points="254.745,276.591 236.08,289.58 244.725,310.872 254.745,310.872 264.765,310.872 
	273.41,289.58 "/>
<polygon style="fill:#DD2F2F;" points="264.765,310.872 254.745,310.872 244.727,310.872 230.977,362.342 251.042,362.342 
	264.779,310.923 "/>
<polygon style="fill:#EF3C3C;" points="251.725,278.692 236.08,289.58 244.725,310.872 254.745,310.872 264.765,310.872 
	264.778,310.839 "/>
<g>
	<path style="fill:#EAB883;" d="M200.025,165.092c-13.576-4.838-29.343,4.159-29.343,17.285c0,13.123,15.766,22.124,29.343,17.285
		V165.092z"/>
	<path style="fill:#EAB883;" d="M309.492,165.092c13.576-4.838,29.344,4.159,29.344,17.285c0,13.123-15.766,22.124-29.344,17.285
		V165.092z"/>
</g>
<g>
	<path style="fill:#E0A773;" d="M172.951,174.135c-1.436,2.455-2.27,5.239-2.27,8.242c0,13.123,15.766,22.124,29.343,17.285v-16.484
		C189.555,186.91,177.792,182.407,172.951,174.135z"/>
	<path style="fill:#E0A773;" d="M309.492,183.179v16.484c17.586,6.267,36.011-10.253,27.074-25.528
		C331.727,182.407,319.963,186.91,309.492,183.179z"/>
</g>
<path style="fill:#F7CF9C;" d="M308.986,144.64c1.448,0.14,2.563,1.341,2.563,2.796c0,47.815,0.031,40.824-0.08,43.047
	c-3.249,64.111-94.377,74.08-111.453,12.213c-0.941-3.421-1.555-6.615-1.865-10.585c-0.318-4.015-0.186-25.814-0.186-25.744
	c0-11.135,9.882-19.631,20.903-18.04c17.358,2.505,42.694,1.532,64.801-17.365c2.272-1.942,5.719-1.315,7.17,1.298
	C293.579,137.194,299.026,143.679,308.986,144.64z"/>
<path style="fill:#EAB883;" d="M228.929,190.484c-0.11-2.195-0.081,4.583-0.08-41.234c-3.537-0.144-6.887-0.476-9.981-0.923
	c-11.021-1.591-20.903,6.905-20.903,18.04c0-0.07-0.132,21.728,0.186,25.744c0.309,3.97,0.924,7.164,1.865,10.585
	c9.593,34.757,42.558,46.839,70.183,39.387C248.651,236.272,230.354,218.577,228.929,190.484z"/>
<g>
</g>
<g>
</g>
<g>
</g>
<g>
</g>
<g>
</g>
<g>
</g>
<g>
</g>
<g>
</g>
<g>
</g>
<g>
</g>
<g>
</g>
<g>
</g>
<g>
</g>
<g>
</g>
<g>
</g>
</svg>
