<?xml version="1.0" encoding="iso-8859-1"?>
<!-- Generator: Adobe Illustrator 19.0.0, SVG Export Plug-In . SVG Version: 6.00 Build 0)  -->
<svg version="1.1" id="Capa_1" xmlns="http://www.w3.org/2000/svg" xmlns:xlink="http://www.w3.org/1999/xlink" x="0px" y="0px"
	 viewBox="0 0 512 512" style="enable-background:new 0 0 512 512;" xml:space="preserve">
<g>
	<path style="fill:#EFEFEF;" d="M137.611,114.715c-4.267,0-7.727-3.459-7.727-7.727V62.085c0-6.96,3.369-13.548,9.012-17.622
		l11.958-8.634c3.461-2.499,8.29-1.717,10.788,1.741c2.498,3.46,1.719,8.289-1.741,10.787l-11.959,8.635
		c-1.631,1.178-2.604,3.082-2.604,5.093v44.903C145.338,111.257,141.879,114.715,137.611,114.715z"/>
	<path style="fill:#EFEFEF;" d="M374.388,114.715c-4.267,0-7.727-3.459-7.727-7.727V62.085c0-2.011-0.973-3.915-2.604-5.092
		l-11.96-8.636c-3.46-2.498-4.239-7.327-1.741-10.787c2.498-3.46,7.328-4.241,10.788-1.741l11.959,8.635
		c5.642,4.073,9.012,10.66,9.012,17.621v44.903C382.115,111.257,378.656,114.715,374.388,114.715z"/>
	<path style="fill:#EFEFEF;" d="M256,114.715c-4.267,0-7.727-3.459-7.727-7.727V41.21c0-4.268,3.459-7.727,7.727-7.727
		c4.267,0,7.727,3.459,7.727,7.727v65.779C263.727,111.257,260.267,114.715,256,114.715z"/>
</g>
<path style="fill:#EAB883;" d="M286.81,327.048h-98.356h-42.475l10.302,160.226c9.191,0,190.738,0,199.438,0l10.302-160.226
	L286.81,327.048L286.81,327.048z"/>
<path style="fill:#E0A773;" d="M145.978,327.048l10.302,160.226c8.848,0,25.453,0,33.203,0l-10.302-160.226L145.978,327.048
	L145.978,327.048z"/>
<g>
	<path style="fill:#CCCCCC;" d="M155.622,144.364V126.03c0-9.947-8.064-18.011-18.011-18.011S119.6,116.083,119.6,126.03v18.334
		H155.622z"/>
	<path style="fill:#CCCCCC;" d="M356.377,144.364V126.03c0-9.947,8.064-18.011,18.011-18.011s18.011,8.064,18.011,18.011v18.334
		H356.377z"/>
	<path style="fill:#CCCCCC;" d="M237.989,144.364V126.03c0-9.947,8.064-18.011,18.011-18.011c9.947,0,18.011,8.064,18.011,18.011
		v18.334H237.989z"/>
</g>
<g>
	<path style="fill:#BCBBBB;" d="M146.617,110.448c-2.651-1.536-5.721-2.429-9.005-2.429c-9.947,0-18.011,8.064-18.011,18.011v18.334
		h18.011V126.03C137.611,119.367,141.238,113.564,146.617,110.448z"/>
	<path style="fill:#BCBBBB;" d="M383.394,110.448c-2.651-1.536-5.721-2.429-9.006-2.429c-9.947,0-18.011,8.064-18.011,18.011v18.334
		h18.011V126.03C374.388,119.367,378.016,113.564,383.394,110.448z"/>
	<path style="fill:#BCBBBB;" d="M265.005,110.448c-2.651-1.536-5.721-2.429-9.006-2.429c-9.947,0-18.011,8.064-18.011,18.011v18.334
		H256V126.03C256,119.367,259.627,113.564,265.005,110.448z"/>
</g>
<path style="fill:#F7CF9C;" d="M366.021,328.078l16.075-132.202c-6.301,0-250.808,0-252.194,0l16.076,132.202H366.021z"/>
<polygon style="fill:#EAB883;" points="129.903,195.876 145.978,328.078 179.181,328.078 163.106,195.876 "/>
<g>
	<path style="fill:#F9DEC0;" d="M303.42,251.365h-94.84c-4.267,0-7.727-3.459-7.727-7.727s3.459-7.727,7.727-7.727h94.84
		c4.267,0,7.727,3.459,7.727,7.727S307.687,251.365,303.42,251.365z"/>
	<path style="fill:#F9DEC0;" d="M303.42,288.452h-94.84c-4.267,0-7.727-3.459-7.727-7.727c0-4.268,3.459-7.727,7.727-7.727h94.84
		c4.267,0,7.727,3.459,7.727,7.727C311.146,284.993,307.687,288.452,303.42,288.452z"/>
</g>
<path style="fill:#93482B;" d="M411.031,143.333c-37.857,0-279.244,0-310.062,0c-4.117,0-7.227,3.732-6.485,7.782l7.268,39.634
	c0.873,4.76,5.021,8.217,9.861,8.217c14.856,0,274.142,0,288.774,0c4.839,0,8.988-3.457,9.861-8.217l7.268-39.634
	C418.259,147.066,415.148,143.333,411.031,143.333z"/>
<path style="fill:#873921;" d="M153.356,190.749l-7.268-39.634c-0.743-4.05,2.367-7.782,6.485-7.782h-51.604
	c-4.117,0-7.228,3.732-6.485,7.782l7.268,39.634c0.873,4.76,5.021,8.217,9.861,8.217h51.604
	C158.378,198.967,154.229,195.51,153.356,190.749z"/>
<path style="fill:#93482B;" d="M370.683,498.092L370.683,498.092c0,7.681-6.227,13.908-13.908,13.908H156.254
	c-7.681,0-13.908-6.227-13.908-13.908l0,0c0-7.681,6.227-13.908,13.908-13.908h200.521
	C364.456,484.183,370.683,490.41,370.683,498.092z"/>
<path style="fill:#873921;" d="M176.859,498.092c0-7.681,6.227-13.908,13.908-13.908h-34.513c-7.681,0-13.908,6.227-13.908,13.908
	S148.573,512,156.254,512h34.513C183.086,512,176.859,505.773,176.859,498.092z"/>
<path style="fill:#666666;" d="M166.666,47.861c-4.315,0-8.568-2.001-11.287-5.768c-4.496-6.228-3.093-14.921,3.135-19.418
	l7.89-5.697c6.226-4.494,14.921-3.095,19.418,3.135c4.496,6.228,3.093,14.921-3.135,19.418l-7.89,5.697
	C172.335,47.005,169.487,47.861,166.666,47.861z"/>
<path style="fill:#535454;" d="M178.342,39.507c-4.315,0-8.568-2.001-11.287-5.768c-4.074-5.644-3.29-13.302,1.525-18.037
	c-0.749,0.357-1.48,0.775-2.176,1.277l-7.89,5.697c-6.228,4.496-7.631,13.19-3.135,19.418c2.719,3.767,6.972,5.768,11.287,5.768
	c2.821,0,5.669-0.856,8.13-2.633l7.89-5.697c0.582-0.42,1.107-0.887,1.603-1.374C182.393,39.059,180.362,39.507,178.342,39.507z"/>
<g>
	<path style="fill:#666666;" d="M345.334,47.861c4.315,0,8.568-2.001,11.287-5.768c4.496-6.228,3.093-14.921-3.135-19.418
		l-7.89-5.697c-6.226-4.494-14.921-3.095-19.418,3.135c-4.496,6.228-3.093,14.921,3.135,19.418l7.89,5.697
		C339.665,47.005,342.513,47.861,345.334,47.861z"/>
	<path style="fill:#666666;" d="M256,41.21c-7.682,0-13.908-6.227-13.908-13.908V13.908C242.092,6.227,248.318,0,256,0
		c7.682,0,13.908,6.227,13.908,13.908v13.393C269.908,34.983,263.681,41.21,256,41.21z"/>
</g>
<g>
	<path style="fill:#535454;" d="M256,25.756c-7.352,0-13.356-5.708-13.859-12.932c-0.029,0.358-0.049,0.718-0.049,1.084v13.393
		c0,7.682,6.227,13.908,13.908,13.908c7.682,0,13.908-6.227,13.908-13.908V13.908c0-0.366-0.02-0.726-0.049-1.084
		C269.356,20.048,263.352,25.756,256,25.756z"/>
	<path style="fill:#535454;" d="M333.658,39.507c4.315,0,8.568-2.001,11.287-5.768c4.074-5.644,3.29-13.302-1.525-18.037
		c0.749,0.357,1.48,0.775,2.176,1.277l7.89,5.697c6.228,4.496,7.631,13.19,3.135,19.418c-2.719,3.767-6.972,5.768-11.287,5.768
		c-2.821,0-5.669-0.856-8.13-2.633l-7.89-5.697c-0.582-0.42-1.107-0.887-1.603-1.374C329.606,39.059,331.638,39.507,333.658,39.507z
		"/>
</g>
<g>
</g>
<g>
</g>
<g>
</g>
<g>
</g>
<g>
</g>
<g>
</g>
<g>
</g>
<g>
</g>
<g>
</g>
<g>
</g>
<g>
</g>
<g>
</g>
<g>
</g>
<g>
</g>
<g>
</g>
</svg>
