<?xml version="1.0" encoding="iso-8859-1"?>
<!-- Generator: Adobe Illustrator 19.0.0, SVG Export Plug-In . SVG Version: 6.00 Build 0)  -->
<svg version="1.1" id="Capa_1" xmlns="http://www.w3.org/2000/svg" xmlns:xlink="http://www.w3.org/1999/xlink" x="0px" y="0px"
	 viewBox="0 0 512 512" style="enable-background:new 0 0 512 512;" xml:space="preserve">
<path style="fill:#F94A46;" d="M459.321,486.918V167.219c0-5.777-4.683-10.461-10.461-10.461h-33.083
	c-5.776,0-10.461,4.683-10.461,10.461v319.697L459.321,486.918L459.321,486.918z"/>
<path style="fill:#92B620;" d="M224.166,486.918v-89.212c0-5.777-4.683-10.461-10.461-10.461h-33.083
	c-5.777,0-10.461,4.683-10.461,10.461v89.212C180.911,486.918,213.421,486.918,224.166,486.918z"/>
<path style="fill:#70B5E8;" d="M341.744,486.918V256.85c0-5.777-4.683-10.461-10.461-10.461H298.2
	c-5.777,0-10.46,4.683-10.46,10.461v230.067L341.744,486.918L341.744,486.918z"/>
<path style="fill:#FFB70D;" d="M106.588,486.918V350.589c0-5.777-4.683-10.461-10.461-10.461H63.045
	c-5.776,0-10.46,4.683-10.46,10.461v136.328H106.588z"/>
<path style="fill:#EF3C3C;" d="M442.779,156.76h-27.001c-5.776,0-10.46,4.683-10.46,10.46v319.697h27.001V167.219
	C432.318,161.443,437.001,156.76,442.779,156.76z"/>
<path style="fill:#83A00B;" d="M207.624,387.244h-27.001c-5.777,0-10.461,4.683-10.461,10.461v89.212c10.46,0,10.721,0,27.001,0
	v-89.212C197.163,391.928,201.846,387.244,207.624,387.244z"/>
<path style="fill:#52A5D8;" d="M325.201,246.39H298.2c-5.777,0-10.46,4.683-10.46,10.46v230.067h27.001V256.85
	C314.741,251.073,319.424,246.39,325.201,246.39z"/>
<path style="fill:#F2A306;" d="M90.045,340.129H63.045c-5.776,0-10.46,4.683-10.46,10.461v136.328h27.001V350.589
	C79.586,344.812,84.269,340.129,90.045,340.129z"/>
<path style="fill:#F94A46;" d="M455.408,78.557h-46.176c-8.053,0-14.582,6.528-14.582,14.582v26.338c0,4.021,3.26,7.281,7.281,7.281
	h61.392c3.682,0,6.666-2.985,6.666-6.666V93.139C469.989,85.085,463.46,78.557,455.408,78.557z"/>
<path style="fill:#70B5E8;" d="M337.829,168.187h-46.176c-8.053,0-14.582,6.528-14.582,14.582v26.338
	c0,4.021,3.26,7.281,7.281,7.281h61.392c3.682,0,6.666-2.985,6.666-6.666v-26.953C352.411,174.716,345.883,168.187,337.829,168.187z
	"/>
<path style="fill:#92B620;" d="M220.252,309.042h-46.176c-8.053,0-14.582,6.528-14.582,14.582v26.338
	c0,4.021,3.26,7.281,7.281,7.281h61.392c3.682,0,6.666-2.985,6.666-6.666v-26.953C234.834,315.57,228.305,309.042,220.252,309.042z"
	/>
<path style="fill:#FFB70D;" d="M102.674,261.926H56.498c-8.053,0-14.582,6.528-14.582,14.582v26.338c0,4.021,3.26,7.281,7.281,7.281
	h61.392c3.682,0,6.666-2.985,6.666-6.666v-26.953C117.256,268.454,110.728,261.926,102.674,261.926z"/>
<path style="fill:#EF3C3C;" d="M432.303,119.476V93.139c0-8.053,6.528-14.582,14.582-14.582h-37.654
	c-8.053,0-14.582,6.528-14.582,14.582v26.338c0,4.021,3.26,7.281,7.281,7.281h37.654
	C435.563,126.758,432.303,123.497,432.303,119.476z"/>
<path style="fill:#52A5D8;" d="M314.726,209.107v-26.338c0-8.053,6.528-14.582,14.582-14.582h-37.654
	c-8.053,0-14.582,6.528-14.582,14.582v26.338c0,4.021,3.26,7.281,7.281,7.281h37.654
	C317.986,216.388,314.726,213.128,314.726,209.107z"/>
<path style="fill:#83A00B;" d="M197.149,349.961v-26.338c0-8.053,6.528-14.582,14.582-14.582h-37.654
	c-8.053,0-14.582,6.528-14.582,14.582v26.338c0,4.021,3.26,7.281,7.281,7.281h37.654
	C200.408,357.243,197.149,353.982,197.149,349.961z"/>
<path style="fill:#F2A306;" d="M79.571,302.845v-26.338c0-8.053,6.528-14.582,14.582-14.582H56.498
	c-8.053,0-14.582,6.528-14.582,14.582v26.338c0,4.021,3.26,7.281,7.281,7.281h37.654C82.831,310.127,79.571,306.867,79.571,302.845z
	"/>
<circle style="fill:#F7CF9C;" cx="79.585" cy="215.263" r="24.388"/>
<path style="fill:#EAB883;" d="M79.588,190.873c-18.62-0.018-30.549,20.252-21.122,36.579s32.948,16.131,42.241-0.002
	C81.929,227.43,70.22,207.135,79.588,190.873z"/>
<path style="fill:#666666;" d="M489.708,474.917c-9.682,0-456.716,0-467.416,0c-8.169,0-14.792,6.622-14.792,14.792l0,0
	c0,8.168,6.622,14.791,14.792,14.791c10.728,0,457.711,0,467.416,0c8.169,0,14.792-6.622,14.792-14.791l0,0
	C504.5,481.539,497.877,474.917,489.708,474.917z"/>
<path style="fill:#535454;" d="M60.452,489.708L60.452,489.708c0-8.169,6.622-14.792,14.792-14.792H22.292
	c-8.169,0-14.792,6.622-14.792,14.792l0,0c0,8.168,6.622,14.792,14.792,14.792h52.951C67.074,504.5,60.452,497.877,60.452,489.708z"
	/>
<circle style="fill:#F7CF9C;" cx="197.162" cy="262.376" r="24.388"/>
<path style="fill:#EAB883;" d="M197.166,237.988c-18.62-0.018-30.549,20.252-21.122,36.579c6.734,11.665,21.65,15.662,33.315,8.928
	c3.848-2.222,6.855-5.337,8.925-8.93C199.507,274.547,187.798,254.25,197.166,237.988z"/>
<circle style="fill:#F7CF9C;" cx="314.739" cy="121.517" r="24.388"/>
<path style="fill:#EAB883;" d="M314.743,97.134c-4.145-0.004-8.348,1.043-12.196,3.264c-11.665,6.734-15.662,21.65-8.927,33.315
	c9.427,16.327,32.948,16.131,42.241-0.002C317.085,133.692,305.376,113.396,314.743,97.134z"/>
<circle style="fill:#F7CF9C;" cx="432.316" cy="31.889" r="24.388"/>
<path style="fill:#EAB883;" d="M432.321,7.503c-18.62-0.018-30.549,20.252-21.122,36.579s32.948,16.131,42.241-0.002
	C434.662,44.062,422.954,23.765,432.321,7.503z"/>
<path d="M401.93,134.258h61.392c7.813,0,14.168-6.354,14.168-14.167V93.139c0-12.177-9.906-22.082-22.082-22.082h-46.176
	c-12.177,0-22.082,9.906-22.082,22.082v26.338C387.149,127.627,393.781,134.258,401.93,134.258z M402.15,93.139
	c0-3.904,3.177-7.081,7.081-7.081h46.176c3.904,0,7.081,3.177,7.081,7.081v26.119H402.15V93.139z"/>
<path d="M432.319,63.778c17.583,0,31.889-14.306,31.889-31.89C464.208,14.306,449.902,0,432.319,0S400.43,14.306,400.43,31.889
	C400.43,49.473,414.736,63.778,432.319,63.778z M432.319,15.001c9.313,0,16.888,7.575,16.888,16.888s-7.575,16.889-16.888,16.889
	c-9.313,0-16.888-7.576-16.888-16.889S423.007,15.001,432.319,15.001z"/>
<path d="M284.353,223.889h61.392c7.813,0,14.167-6.354,14.167-14.167v-26.953c0-12.177-9.906-22.082-22.082-22.082h-46.176
	c-12.177,0-22.082,9.906-22.082,22.082v26.338C269.571,217.257,276.203,223.889,284.353,223.889z M284.572,182.769
	c0-3.904,3.177-7.081,7.081-7.081h46.176c3.904,0,7.081,3.177,7.081,7.081v26.119h-60.339V182.769z"/>
<path d="M314.741,153.408c17.583,0,31.889-14.306,31.889-31.89c0-17.583-14.306-31.889-31.889-31.889
	c-17.583,0-31.889,14.306-31.889,31.889C282.852,139.103,297.158,153.408,314.741,153.408z M314.741,104.631
	c9.313,0,16.888,7.575,16.888,16.888s-7.575,16.889-16.888,16.889c-9.313,0-16.888-7.576-16.888-16.889
	S305.428,104.631,314.741,104.631z"/>
<path d="M166.776,364.744h61.392c7.812,0,14.167-6.355,14.167-14.168v-26.952c0-12.177-9.906-22.082-22.082-22.082h-46.176
	c-12.177,0-22.082,9.906-22.082,22.082v26.338C151.993,358.113,158.625,364.744,166.776,364.744z M166.994,323.624
	c0-3.904,3.177-7.081,7.081-7.081h46.176c3.904,0,7.081,3.177,7.081,7.081v26.119h-60.339L166.994,323.624L166.994,323.624z"/>
<path d="M197.163,294.264c17.583,0,31.889-14.306,31.889-31.89c0-17.583-14.306-31.889-31.889-31.889s-31.889,14.306-31.889,31.889
	C165.275,279.958,179.58,294.264,197.163,294.264z M197.163,245.487c9.313,0,16.888,7.575,16.888,16.888
	c0,9.313-7.575,16.889-16.888,16.889s-16.888-7.576-16.888-16.889C180.275,253.062,187.851,245.487,197.163,245.487z"/>
<path d="M49.198,317.626h61.392c7.812,0,14.167-6.354,14.167-14.167v-26.953c0-12.177-9.906-22.082-22.082-22.082H56.498
	c-12.177,0-22.082,9.906-22.082,22.082v26.338C34.416,310.996,41.047,317.626,49.198,317.626z M49.417,276.507
	c0-3.904,3.177-7.081,7.081-7.081h46.176c3.904,0,7.081,3.177,7.081,7.081v26.119H49.417V276.507z"/>
<path d="M79.586,247.147c17.583,0,31.889-14.306,31.889-31.89c0-17.583-14.306-31.889-31.889-31.889s-31.889,14.306-31.889,31.889
	C47.697,232.841,62.003,247.147,79.586,247.147z M79.586,198.369c9.313,0,16.888,7.575,16.888,16.888s-7.575,16.889-16.888,16.889
	s-16.888-7.576-16.888-16.889S70.274,198.369,79.586,198.369z"/>
<path d="M489.709,467.416h-22.887V263.891c0-4.143-3.357-7.5-7.5-7.5c-4.143,0-7.5,3.357-7.5,7.5v203.525h-39.002V167.219
	c0-1.632,1.328-2.959,2.96-2.959h33.082c1.632,0,2.96,1.327,2.96,2.959v61.67c0,4.143,3.357,7.5,7.5,7.5c4.143,0,7.5-3.357,7.5-7.5
	v-61.67c0-9.903-8.057-17.96-17.961-17.96h-33.082c-9.904,0-17.961,8.057-17.961,17.96v300.197h-48.573V256.85
	c0-9.903-8.057-17.96-17.961-17.96h-33.082c-9.904,0-17.961,8.057-17.961,17.96v210.567h-48.573v-69.711
	c0-9.904-8.057-17.961-17.961-17.961h-33.083c-9.903,0-17.96,8.057-17.96,17.961v69.711H114.09v-62.671c0-4.143-3.357-7.5-7.5-7.5
	s-7.5,3.357-7.5,7.5v62.671H60.087V350.589c0-1.632,1.327-2.96,2.959-2.96h33.083c1.632,0,2.96,1.328,2.96,2.96v19.154
	c0,4.143,3.357,7.5,7.5,7.5s7.5-3.357,7.5-7.5v-19.154c0-9.904-8.057-17.961-17.961-17.961H63.045
	c-9.903,0-17.96,8.057-17.96,17.961v116.827H22.291C10,467.416,0,477.416,0,489.708C0,501.999,10,512,22.291,512h365.525
	c4.143,0,7.5-3.357,7.5-7.5c0-4.143-3.357-7.5-7.5-7.5H22.291c-4.02,0-7.29-3.271-7.29-7.291s3.271-7.29,7.29-7.29
	c57.833,0,417.283,0,467.417,0c4.02,0,7.29,3.271,7.29,7.29c0,4.021-3.271,7.291-7.29,7.291h-66.89c-4.143,0-7.5,3.357-7.5,7.5
	c0,4.143,3.357,7.5,7.5,7.5h66.89C502,512,512,501.999,512,489.708C512,477.416,502,467.416,489.709,467.416z M216.665,467.416
	h-39.002v-69.711c0-1.632,1.327-2.96,2.959-2.96h33.083c1.632,0,2.96,1.328,2.96,2.96V467.416z M334.243,467.416h-39.002V256.85
	c0-1.632,1.328-2.959,2.96-2.959h33.082c1.632,0,2.96,1.327,2.96,2.959V467.416z"/>
<g>
</g>
<g>
</g>
<g>
</g>
<g>
</g>
<g>
</g>
<g>
</g>
<g>
</g>
<g>
</g>
<g>
</g>
<g>
</g>
<g>
</g>
<g>
</g>
<g>
</g>
<g>
</g>
<g>
</g>
</svg>
