<?xml version="1.0" encoding="iso-8859-1"?>
<!-- Generator: Adobe Illustrator 19.0.0, SVG Export Plug-In . SVG Version: 6.00 Build 0)  -->
<svg version="1.1" id="Capa_1" xmlns="http://www.w3.org/2000/svg" xmlns:xlink="http://www.w3.org/1999/xlink" x="0px" y="0px"
	 viewBox="0 0 512 512" style="enable-background:new 0 0 512 512;" xml:space="preserve">
<path style="fill:#FFB70D;" d="M145.142,222.217c0,7.786,0,276.115,0,268.333c0,10.977,12.112,17.616,21.376,11.729
	c0.1-0.064,81.371-49.592,76.201-46.442c8.158-4.971,18.41-4.967,26.563,0.013l75.24,45.956c9.619,6.043,22.124-0.888,22.124-12.248
	c0-4.207,0-262.83,0-267.038C311.298,296.862,200.349,296.791,145.142,222.217z"/>
<path style="fill:#F2A306;" d="M188.887,260.746c-17.173-9.614-32.095-22.79-43.746-38.528c0,4.827,0,265.109,0,268.333
	c0,10.977,12.111,17.616,21.376,11.729c0.285-0.181-1.596,0.921,22.371-13.632C188.887,478.108,188.887,278.367,188.887,260.746z"/>
<path style="fill:#F9D07D;" d="M175.386,252.12v244.755l27.002-16.457V267.355C201.686,266.992,189.336,262.213,175.386,252.12z"/>
<path style="fill:#F2C475;" d="M188.887,488.646c0-10.539,0-210.279,0-227.9c-4.689-2.627-9.403-5.659-13.501-8.625v244.755
	L188.887,488.646z"/>
<path style="fill:#F9D07D;" d="M309.397,480.351l27.002,16.493V252.284c-8.217,5.919-17.255,11.056-27.002,15.167V480.351z"/>
<path style="fill:#F48C8C;" d="M324.936,264.756c-65.834,38.009-150.317,15.372-188.326-50.462
	c-38.009-65.833-15.372-150.316,50.462-188.326c65.833-38.009,150.316-15.372,188.325,50.462S390.769,226.747,324.936,264.756z"/>
<path style="fill:#EF7B7B;" d="M159.994,200.793c-35.731-61.888-17.862-140.254,39.101-181.001
	C124.648,53.598,96.11,144.147,136.609,214.294c40.545,70.227,133.254,90.66,199.688,43.138
	C272.527,286.39,195.726,262.682,159.994,200.793z"/>
<path style="fill:#F94A46;" d="M200.573,49.353c-52.94,30.564-71.144,98.501-40.579,151.44
	c30.565,52.94,98.501,71.144,151.441,40.578c52.939-30.564,71.143-98.5,40.577-151.44C321.448,36.992,253.512,18.789,200.573,49.353
	z"/>
<path style="fill:#ED3E3E;" d="M185.977,185.792c-28.021-48.533-15.047-109.666,28.096-143.057
	c-4.583,1.876-9.095,4.074-13.501,6.619c-52.94,30.565-71.144,98.501-40.579,151.44c33.364,57.787,110.555,73.5,163.923,32.196
	C273.427,253.657,213.998,234.326,185.977,185.792z"/>
<path style="fill:#EFEFEF;" d="M261.427,69.335l19.068,38.635c0.881,1.785,2.583,3.021,4.553,3.308l42.636,6.195
	c4.96,0.721,6.941,6.816,3.351,10.315l-30.852,30.073c-1.425,1.389-2.075,3.39-1.739,5.352l7.284,42.464
	c0.847,4.939-4.337,8.707-8.774,6.374l-38.135-20.049c-1.762-0.926-3.866-0.926-5.628,0l-38.135,20.049
	c-4.436,2.332-9.621-1.435-8.774-6.374l7.284-42.464c0.336-1.962-0.314-3.963-1.739-5.352l-30.852-30.073
	c-3.589-3.498-1.609-9.594,3.351-10.315l42.636-6.195c1.97-0.286,3.672-1.523,4.553-3.308l19.068-38.635
	C252.799,64.84,259.209,64.84,261.427,69.335z"/>
<path style="fill:#DDDDDD;" d="M243.248,154.879c0.336-1.961-0.314-3.963-1.739-5.352l-30.852-30.073
	c-1.612-1.571-2.092-3.664-1.692-5.56l-24.64,3.58c-4.96,0.721-6.941,6.816-3.351,10.315l30.852,30.073
	c1.425,1.389,2.075,3.391,1.739,5.352l-7.284,42.464c-0.847,4.94,4.337,8.707,8.774,6.374l21.342-11.22
	C235.043,197.826,236.06,199.021,243.248,154.879z"/>
<path d="M286.883,103.966l-18.731-37.95c0,0,0-0.001-0.001-0.001c-4.96-10.05-19.321-10.08-24.297,0.001l-18.73,37.95l-41.879,6.086
	c-11.111,1.615-15.544,15.274-7.51,23.109l30.305,29.54l-7.153,41.709c-1.899,11.062,9.724,19.508,19.656,14.282l37.459-19.693
	l37.458,19.692c9.939,5.223,21.555-3.219,19.658-14.28l-7.153-41.711l30.305-29.54c8.038-7.835,3.595-21.494-7.51-23.107
	L286.883,103.966z M294.948,152.492c-3.194,3.113-4.651,7.598-3.896,11.991l6.785,39.562c-35.59-18.154-35.975-20.234-41.832-20.234
	c-5.844,0-6.031,1.972-41.833,20.233l6.786-39.562c0.753-4.397-0.704-8.881-3.896-11.99l-28.743-28.017l39.722-5.773
	c4.412-0.641,8.227-3.411,10.201-7.411l17.765-35.995l17.763,35.993c1.973,4,5.785,6.772,10.201,7.413l39.723,5.773L294.948,152.492
	z"/>
<path d="M256.004,27.002c-65.266,0-118.363,53.097-118.363,118.362c0,65.266,53.097,118.362,118.363,118.362
	s118.363-53.097,118.363-118.362C374.366,80.099,321.269,27.002,256.004,27.002z M256.004,248.726
	c-56.994,0-103.362-46.368-103.362-103.361c0-56.995,46.368-103.361,103.362-103.361S359.366,88.37,359.366,145.365
	C359.365,202.358,312.997,248.726,256.004,248.726z"/>
<path d="M377.627,65.839c-2.272-3.463-6.922-4.427-10.387-2.157c-3.463,2.273-4.429,6.923-2.157,10.387
	c29.598,45.119,28.533,104.644-4.436,148.954c-0.005,0.007-0.012,0.013-0.018,0.021c-50.635,68.01-154.948,72.53-209.487-0.319
	c-63.016-85.193-2.366-207.724,104.861-207.724c32.346,0,63.391,11.982,87.416,33.741c3.069,2.778,7.814,2.545,10.595-0.525
	c2.78-3.07,2.545-7.814-0.525-10.595C326.699,13.361,292.079,0,256.004,0C137.315,0,69.78,134.65,137.64,229.66v260.891
	c0,12.571,10.332,21.449,21.426,21.449c9.788,0,7.017-1.814,87.556-49.756c5.782-3.524,12.968-3.521,18.75,0.009
	c24.243,14.807,38.939,23.784,75.159,45.906c14.615,9.183,33.614-1.312,33.614-18.599v-50.683c0-4.143-3.357-7.501-7.501-7.501
	s-7.501,3.357-7.501,7.501v50.683c0,5.428-5.946,8.838-10.714,5.847l-4.53-2.767V261.063c5.387-4.102,10.483-8.569,15.244-13.368
	v156.18c0,4.143,3.357,7.501,7.501,7.501s7.501-3.357,7.501-7.501V229.962C409.346,180.944,410.334,115.7,377.627,65.839z
	 M167.885,492.664c-3.158,1.17-6.905,6.254-11.926,3.497c-0.998-0.548-3.317-2.191-3.317-5.61V247.469
	c4.76,4.818,9.855,9.304,15.243,13.424V492.664z M301.896,466.984l-28.705-17.533c-10.598-6.476-23.772-6.48-34.377-0.017
	l-28.926,17.629V339.465c0-4.143-3.357-7.501-7.501-7.501c-4.143,0-7.501,3.357-7.501,7.501v136.742l-12.001,7.314V270.959
	c4.115,2.405,7.822,4.334,12.001,6.28v27.225c0,4.143,3.357,7.501,7.501,7.501c4.143,0,7.501-3.357,7.501-7.501v-21.235
	c29.634,9.939,62.197,10.017,92.008,0.072V466.984z M328.898,483.477l-12.001-7.33V277.341c3.959-1.834,7.719-3.758,12.001-6.251
	V483.477z"/>
<g>
</g>
<g>
</g>
<g>
</g>
<g>
</g>
<g>
</g>
<g>
</g>
<g>
</g>
<g>
</g>
<g>
</g>
<g>
</g>
<g>
</g>
<g>
</g>
<g>
</g>
<g>
</g>
<g>
</g>
</svg>
